<svg id="Layer_1" data-name="Layer 1" xmlns="http://www.w3.org/2000/svg" viewBox="0 0 1001 1000"><defs><style>.cls-1{fill:none;stroke:#000;stroke-miterlimit:10;stroke-width:56.69px;}</style></defs><path class="cls-1" d="M416.8,860.2c0,12.2-6.6,18.5-18.2,16.3-4-.8-8.6-4.5-10.7-8.1C363.7,826.9,87.5,348,70.3,318.1c-4.1-7.3-5.4-15.3.8-20.9s14-4,21.7.6C122.2,315.3,392.2,470.4,408.5,480c6.9,4.1,8.3,11.3,8.3,18.9Z"/><path class="cls-1" d="M584,498c0-8.4,2.5-14.3,10-18.7C620.8,464,876.1,315.9,908.7,297.4c10.1-5.8,15.7-5.3,21.8,1.7s2.8,13.5-1.3,20.6c-17.3,29.4-295,510.1-316.7,548.5-4.9,8.9-11.9,10.3-19.7,8s-8.7-9.7-8.7-17C584.2,798.8,584.2,558.1,584,498Z"/><path class="cls-1" d="M816,122.8c7.2,0,14,.9,17.6,8s.6,16.1-8.7,21.5c-50.2,28.8-256,147.6-308.6,178.3-10.2,6-19.5,7.5-30.9.5C452.7,311,184.3,156.2,172.3,149.9c-6.2-3.3-7.7-8.6-7.1-14.2s4.7-11.6,12-12.5C180.2,122.8,710.9,122.9,816,122.8Z"/></svg>