<svg id="Layer_1" data-name="Layer 1" xmlns="http://www.w3.org/2000/svg" viewBox="0 0 501 500"><defs><style>.cls-1{fill:none;stroke:#000;stroke-miterlimit:10;stroke-width:25.51px;}</style></defs><path class="cls-1" d="M211.3,418.4c0,5.6-3.1,8.6-8.5,7.6a8.6,8.6,0,0,1-5-3.8C186.5,402.8,57.4,179,49.4,165c-2-3.4-2.6-7.2.3-9.8s6.6-1.8,10.2.3c13.7,8.2,139.9,80.7,147.5,85.2,3.3,1.9,3.9,5.2,3.9,8.8Z"/><path class="cls-1" d="M289.5,249.1c-.1-4,1.1-6.7,4.6-8.8,12.6-7.1,131.9-76.3,147.1-85,4.7-2.7,7.4-2.5,10.2.8s1.3,6.3-.6,9.6c-8.1,13.8-137.9,238.5-148,256.4-2.4,4.1-5.6,4.8-9.3,3.7s-4-4.5-4-7.9Z"/><path class="cls-1" d="M397.9,73.7c3.3,0,6.5.4,8.2,3.8s.3,7.5-4.1,10L257.8,170.8c-4.8,2.8-9.1,3.5-14.5.2C228.1,161.7,102.6,89.3,97,86.4c-2.9-1.6-3.6-4-3.3-6.7a6,6,0,0,1,5.6-5.8C100.7,73.7,348.7,73.7,397.9,73.7Z"/></svg>