<svg id="Layer_1" data-name="Layer 1" xmlns="http://www.w3.org/2000/svg" viewBox="0 0 30 30"><defs><style>.cls-1{fill:none;stroke:#000;stroke-miterlimit:10;stroke-width:1.98px;}</style></defs><path class="cls-1" d="M12.7,24.4c0,.3-.2.5-.5.4l-.3-.2L3.6,10.2a.4.4,0,0,1,0-.5h.6l8.2,4.8a.5.5,0,0,1,.3.5Z"/><path class="cls-1" d="M17,14.9c0-.2.1-.3.3-.4l8.2-4.8c.3-.1.4-.1.6.1s0,.3-.1.5-7.7,13.3-8.2,14.3-.3.3-.6.2-.2-.2-.2-.4Z"/><path class="cls-1" d="M23.1,5.1c.2,0,.3.1.4.3s.1.4-.2.5l-8,4.7a1,1,0,0,1-.9,0L6.3,5.9a.4.4,0,0,1-.2-.4.3.3,0,0,1,.3-.3Z"/></svg>