<svg id="Layer_1" data-name="Layer 1" xmlns="http://www.w3.org/2000/svg" viewBox="0 0 100 100"><defs><style>.cls-1{fill:none;stroke:#000;stroke-miterlimit:10;stroke-width:5.67px;}</style></defs><path class="cls-1" d="M42,84.4c0,1.2-.6,1.8-1.7,1.5a1.4,1.4,0,0,1-1-.7L8.9,32.6c-.3-.7-.5-1.4.1-2a1.8,1.8,0,0,1,2.1.1L41.2,48.1a1.8,1.8,0,0,1,.8,1.8Z"/><path class="cls-1" d="M58,49.8a1.8,1.8,0,0,1,.9-1.8L89,30.7c1-.6,1.5-.6,2.1.1s.2,1.3-.2,2L60.7,85.2a1.5,1.5,0,0,1-1.9.7c-.7-.2-.8-.9-.8-1.6Z"/><path class="cls-1" d="M80.1,14c.7,0,1.4.1,1.7.8s.1,1.5-.8,2l-29.5,17a2.6,2.6,0,0,1-2.9.1L18.7,16.6a1.3,1.3,0,0,1-.7-1.4A1.4,1.4,0,0,1,19.1,14Z"/></svg>