<svg id="Layer_1" data-name="Layer 1" xmlns="http://www.w3.org/2000/svg" viewBox="0 0 864 258"><defs><style>.cls-1{font-size:954px;}.cls-1,.cls-3{font-family:Helvetica;}.cls-2{letter-spacing:-0.05em;}.cls-3{font-size:170.28px;}.cls-4{letter-spacing:-0.05em;}.cls-5{font-size:62.65px;font-family:Helvetica-Light, Helvetica;font-weight:300;}.cls-6{fill:none;stroke:#000;stroke-miterlimit:10;stroke-width:14.17px;}</style></defs><text class="cls-1" transform="translate(-3324.1 819.1)">TETR<tspan class="cls-2" x="2490.7" y="0">A</tspan><tspan x="3074.9" y="0"> </tspan></text><text class="cls-3" transform="translate(284.4 146.2)">TETR<tspan class="cls-4" x="444.6" y="0">A</tspan><tspan x="548.8" y="0"> </tspan></text><text class="cls-5" transform="translate(315.9 235.6)">BIO DISTRIBUTED</text><path class="cls-6" d="M113.6,223.7c0,3.2-1.7,4.8-4.7,4.3a4.6,4.6,0,0,1-2.8-2.1L23.3,82.4c-1.1-1.9-1.4-4,.2-5.5s3.6-1,5.6.2c7.7,4.6,78.1,45,82.3,47.5,1.9,1.1,2.2,2.9,2.2,4.9Z"/><path class="cls-6" d="M157.2,129.3a5.1,5.1,0,0,1,2.6-4.9c7-4,73.6-42.6,82.1-47.4,2.6-1.5,4.1-1.4,5.6.4s.8,3.6-.3,5.4c-4.5,7.7-76.9,133-82.6,143a4,4,0,0,1-5.1,2.1c-2-.6-2.3-2.6-2.3-4.5C157.2,207.7,157.3,144.9,157.2,129.3Z"/><path class="cls-6" d="M217.7,31.5c1.9,0,3.6.2,4.6,2.1s.1,4.2-2.3,5.6L139.6,85.6c-2.7,1.6-5.1,2-8.1.2C123,80.5,53,40.2,49.9,38.5A3.5,3.5,0,0,1,48,34.8a3.3,3.3,0,0,1,3.1-3.2Z"/></svg>