<svg id="Layer_1" data-name="Layer 1" xmlns="http://www.w3.org/2000/svg" viewBox="0 0 30 30"><defs><style>.cls-1{fill:none;stroke:#fcd6a3;stroke-miterlimit:10;stroke-width:1.98px;}</style></defs><path class="cls-1" d="M12.7,24.9c0,.3-.2.5-.5.4l-.3-.2L3.6,10.7a.5.5,0,0,1,0-.5c.2-.2.4-.1.6,0L12.4,15a.5.5,0,0,1,.3.5Z"/><path class="cls-1" d="M17,15.4c0-.2.1-.3.3-.4l8.2-4.8c.3-.2.4-.1.6,0a.7.7,0,0,1-.1.6c-.4.8-7.7,13.3-8.2,14.3s-.3.3-.6.2-.2-.2-.2-.4Z"/><path class="cls-1" d="M23.1,5.6c.2,0,.3.1.4.3s.1.4-.2.5l-8,4.7a1,1,0,0,1-.9,0L6.3,6.3c-.2,0-.2-.2-.2-.3a.3.3,0,0,1,.3-.3Z"/></svg>