<svg id="Layer_1" data-name="Layer 1" xmlns="http://www.w3.org/2000/svg" viewBox="0 0 501 501"><defs><style>.cls-1{fill:none;stroke:#fcd6a3;stroke-miterlimit:10;stroke-width:25.51px;}</style></defs><path class="cls-1" d="M211.3,419.3c0,5.7-3.1,8.7-8.5,7.7a8.6,8.6,0,0,1-5-3.8C186.5,403.8,57.4,179.9,49.4,166c-2-3.4-2.6-7.2.3-9.8s6.6-1.9,10.2.3c13.7,8.2,139.9,80.7,147.5,85.2,3.3,1.9,3.9,5.2,3.9,8.8Z"/><path class="cls-1" d="M289.5,250.1c-.1-4,1.1-6.7,4.6-8.8,12.6-7.1,131.9-76.3,147.1-85,4.7-2.7,7.4-2.5,10.2.8s1.3,6.3-.6,9.6c-8.1,13.8-137.9,238.4-148,256.4-2.4,4.1-5.6,4.8-9.3,3.7s-4-4.5-4-7.9Z"/><path class="cls-1" d="M397.9,74.7c3.3,0,6.5.4,8.2,3.8s.3,7.5-4.1,10c-23.5,13.4-119.6,69-144.2,83.3-4.8,2.8-9.1,3.5-14.5.2C228.1,162.7,102.6,90.3,97,87.3c-2.9-1.5-3.6-3.9-3.3-6.6a6,6,0,0,1,5.6-5.8C100.7,74.7,348.7,74.7,397.9,74.7Z"/></svg>