<svg id="Layer_1" data-name="Layer 1" xmlns="http://www.w3.org/2000/svg" viewBox="0 0 340 102"><defs><style>.cls-1{font-size:66.59px;font-family:Helvetica;}.cls-1,.cls-3{fill:#fcd6a3;}.cls-2{letter-spacing:-0.05em;}.cls-3{font-size:24.5px;font-family:Helvetica-Light, Helvetica;font-weight:300;}.cls-4{fill:none;stroke:#fcd6a3;stroke-miterlimit:10;stroke-width:5.67px;}</style></defs><text class="cls-1" transform="translate(112.4 57.3)">TETR<tspan class="cls-2" x="173.8" y="0">A</tspan><tspan x="214.6" y="0"> </tspan></text><text class="cls-3" transform="translate(124.7 92.3)">BIO DISTRIBUTED</text><path class="cls-4" d="M45.6,87.6c0,1.2-.6,1.9-1.8,1.7a1.9,1.9,0,0,1-1.1-.9c-2.5-4.2-30.6-53-32.4-56.1a1.7,1.7,0,0,1,.1-2.1c.6-.6,1.4-.4,2.2.1L44.8,48.8a2.2,2.2,0,0,1,.8,2Z"/><path class="cls-4" d="M62.7,50.7a1.8,1.8,0,0,1,1-1.9L95.8,30.2c1-.6,1.6-.5,2.2.2s.3,1.4-.1,2.1c-1.8,3-30.1,52-32.3,55.9a1.5,1.5,0,0,1-2,.8c-.8-.2-.9-1-.9-1.7Z"/><path class="cls-4" d="M86.3,12.4c.8,0,1.5.1,1.8.8a1.6,1.6,0,0,1-.9,2.2L55.8,33.6a2.9,2.9,0,0,1-3.2.1c-3.3-2.1-30.7-17.9-31.9-18.5a1.3,1.3,0,0,1-.7-1.5,1.3,1.3,0,0,1,1.2-1.2Z"/></svg>