<svg id="Layer_1" data-name="Layer 1" xmlns="http://www.w3.org/2000/svg" viewBox="0 0 100 100"><defs><style>.cls-1{opacity:0.2;}.cls-2{fill:none;stroke:#000;stroke-miterlimit:10;stroke-width:5.67px;}</style></defs><g class="cls-1"><path class="cls-2" d="M41.9,84.4c0,1.2-.7,1.8-1.8,1.5a1.4,1.4,0,0,1-1-.7c-2.3-4-28.7-49.7-30.3-52.6a1.5,1.5,0,0,1,.1-2c.6-.5,1.3-.3,2,.1L41.1,48.1a2.1,2.1,0,0,1,.8,1.8Z"/><path class="cls-2" d="M57.8,49.8a1.9,1.9,0,0,1,1-1.8l30-17.3c1-.6,1.5-.6,2.1.1s.3,1.3-.1,2c-1.7,2.8-28.2,48.7-30.3,52.4a1.4,1.4,0,0,1-1.8.7c-.8-.2-.9-.9-.9-1.6Z"/><path class="cls-2" d="M80,14a1.7,1.7,0,0,1,1.7.8,1.6,1.6,0,0,1-.9,2l-29.4,17a2.7,2.7,0,0,1-3,.1C45.3,32,19.7,17.2,18.5,16.6a1.3,1.3,0,0,1-.7-1.4A1.4,1.4,0,0,1,19,14Z"/></g></svg>