<svg id="Layer_1" data-name="Layer 1" xmlns="http://www.w3.org/2000/svg" viewBox="0 0 4810 1443"><defs><style>.cls-1{opacity:0.2;}.cls-2{font-size:954px;font-family:Helvetica;}.cls-3{letter-spacing:-0.05em;}.cls-4{font-size:351px;font-family:Helvetica-Light, Helvetica;font-weight:300;}.cls-5{fill:none;stroke:#000;stroke-miterlimit:10;stroke-width:81.35px;}</style></defs><g class="cls-1"><text class="cls-2" transform="translate(1557.9 819.1)">TETR<tspan class="cls-3" x="2490.7" y="0">A</tspan><tspan x="3074.9" y="0"> </tspan></text><text class="cls-4" transform="translate(1734.4 1318.4)">BIO DISTRIBUTED</text><path class="cls-5" d="M640.5,1253.4c0,17.7-9.5,27-26.5,23.7-5.9-1.1-12.6-6.4-15.7-11.8C563,1204.8,159.6,505.2,134.6,461.5c-6.1-10.5-8.1-22.2,1.1-30.5s20.4-5.8,31.6.9c43,25.6,437.4,252.1,461.1,266.2,10.2,6,12.2,16.4,12.2,27.6C640.5,813.4,640.6,1165.2,640.5,1253.4Z"/><path class="cls-5" d="M884.8,724.4c0-12.3,3.7-21,14.6-27.3,39.2-22.4,412-238.7,459.6-265.8,14.8-8.4,23-7.7,31.8,2.6s4.2,19.6-1.8,30c-25.3,43-430.9,745.1-462.5,801.2-7.3,12.9-17.4,15-28.9,11.7s-12.7-14.3-12.6-24.9C885,1163.7,885.1,812,884.8,724.4Z"/><path class="cls-5" d="M1223.6,176.3c10.6,0,20.5,1.3,25.8,11.8s.8,23.5-12.8,31.3c-73.3,42.1-373.8,215.7-450.7,260.4-15,8.8-28.5,11-45.2.7C693,451.2,300.9,225.1,283.5,215.9c-9-4.8-11.2-12.5-10.4-20.7.9-9.8,6.8-17,17.5-18.3C295,176.3,1070.1,176.4,1223.6,176.3Z"/></g></svg>