<svg id="Layer_1" data-name="Layer 1" xmlns="http://www.w3.org/2000/svg" viewBox="0 0 340 101"><defs><style>.cls-1{opacity:0.2;}.cls-2{font-size:66.59px;font-family:Helvetica;}.cls-3{letter-spacing:-0.05em;}.cls-4{font-size:24.5px;font-family:Helvetica-Light, Helvetica;font-weight:300;}.cls-5{fill:none;stroke:#000;stroke-miterlimit:10;stroke-width:5.67px;}</style></defs><g class="cls-1"><text class="cls-2" transform="translate(112.4 56.3)">TETR<tspan class="cls-3" x="173.8" y="0">A</tspan><tspan x="214.6" y="0"> </tspan></text><text class="cls-4" transform="translate(124.7 91.3)">BIO DISTRIBUTED</text><path class="cls-5" d="M45.6,86.6c0,1.3-.6,1.9-1.8,1.7a1.9,1.9,0,0,1-1.1-.9c-2.5-4.2-30.6-53-32.4-56.1a1.7,1.7,0,0,1,.1-2.1c.6-.6,1.4-.4,2.2.1L44.8,47.9a1.9,1.9,0,0,1,.8,1.9Z"/><path class="cls-5" d="M62.7,49.7a1.8,1.8,0,0,1,1-1.9L95.8,29.2c1-.6,1.6-.5,2.2.2s.3,1.4-.1,2.1c-1.8,3-30.1,52-32.3,55.9a1.5,1.5,0,0,1-2,.8c-.8-.2-.9-1-.9-1.7Z"/><path class="cls-5" d="M86.3,11.4c.8,0,1.5.1,1.8.9s.1,1.6-.9,2.1L55.8,32.6a2.9,2.9,0,0,1-3.2.1c-3.3-2.1-30.7-17.9-31.9-18.5a1.3,1.3,0,0,1-.7-1.4,1.3,1.3,0,0,1,1.2-1.3Z"/></g></svg>