<svg id="Layer_1" data-name="Layer 1" xmlns="http://www.w3.org/2000/svg" viewBox="0 0 100 100"><defs><style>.cls-1{fill:none;stroke:#ff6b00;stroke-miterlimit:10;stroke-width:5.67px;}</style></defs><path class="cls-1" d="M41.9,84.9a1.4,1.4,0,0,1-1.8,1.5,1.4,1.4,0,0,1-1-.7C36.8,81.7,10.4,36,8.8,33.1a1.5,1.5,0,0,1,.1-2c.6-.5,1.3-.3,2,.1L41.1,48.6a2.1,2.1,0,0,1,.8,1.8Z"/><path class="cls-1" d="M57.8,50.3a1.9,1.9,0,0,1,1-1.8l30-17.4c1-.5,1.5-.5,2.1.2s.3,1.3-.1,2C89.1,36.1,62.6,82,60.5,85.6a1.4,1.4,0,0,1-1.8.8c-.8-.2-.9-.9-.9-1.6Z"/><path class="cls-1" d="M80,14.5a1.8,1.8,0,0,1,1.7.7,1.6,1.6,0,0,1-.9,2.1l-29.4,17a2.7,2.7,0,0,1-3,.1c-3.1-1.9-28.7-16.7-29.9-17.3a1.3,1.3,0,0,1-.7-1.4A1.4,1.4,0,0,1,19,14.5Z"/></svg>