<svg id="Layer_1" data-name="Layer 1" xmlns="http://www.w3.org/2000/svg" viewBox="0 0 1001 1001"><defs><style>.cls-1{fill:none;stroke:#ff6b00;stroke-miterlimit:10;stroke-width:56.69px;}</style></defs><path class="cls-1" d="M416.8,861.2c0,12.2-6.6,18.5-18.2,16.3-4-.8-8.6-4.5-10.7-8.1C363.7,827.9,87.5,349,70.3,319.1c-4.1-7.3-5.4-15.3.8-20.9s14-4,21.7.6C122.2,316.3,392.2,471.4,408.5,481c6.9,4.1,8.3,11.3,8.3,18.9Z"/><path class="cls-1" d="M584,499c0-8.4,2.5-14.4,10-18.7C620.8,465,876.1,316.9,908.7,298.4c10.1-5.8,15.7-5.3,21.8,1.7s2.8,13.5-1.3,20.6c-17.3,29.4-295,510.1-316.7,548.5-4.9,8.9-11.9,10.3-19.7,8s-8.7-9.7-8.7-17C584.2,799.8,584.2,559,584,499Z"/><path class="cls-1" d="M816,123.8c7.2,0,14,.9,17.6,8s.6,16.1-8.7,21.5c-50.2,28.8-256,147.6-308.6,178.3-10.2,6-19.5,7.5-30.9.5C452.7,312,184.3,157.2,172.3,150.9c-6.2-3.3-7.7-8.6-7.1-14.2s4.7-11.6,12-12.5C180.2,123.8,710.9,123.8,816,123.8Z"/></svg>