<svg id="Layer_1" data-name="Layer 1" xmlns="http://www.w3.org/2000/svg" viewBox="0 0 800 800"><defs><style>.cls-1{fill:none;stroke:#000;stroke-miterlimit:10;stroke-width:14.17px;}</style></defs><path class="cls-1" d="M329.3,551.7q0,76.6-.1,153.3c0,10.3-5.5,15.6-15.4,13.8-3.3-.7-7.2-3.8-9-6.9-20.5-35.1-40.6-70.4-60.9-105.6-18-31.3-36.4-62.3-54.4-93.5s-37.3-65.4-56.1-97.9c-17.9-31-36-61.9-54-92.9-14.6-25.3-28.9-50.7-43.5-76-3.5-6.2-4.6-12.9.7-17.7s11.8-3.4,18.3.5c24.9,14.8,50.2,29,75.3,43.4l75.8,44,74.6,43.1c13.8,7.9,27.8,15.6,41.6,23.8,5.9,3.5,7.1,9.5,7.1,16C329.2,449.9,329.3,500.8,329.3,551.7Z"/><path class="cls-1" d="M471,550.8q0-76.2-.1-152.5c-.1-7.1,2.1-12.1,8.4-15.8,22.7-13,45.3-26.3,67.9-39.4q57.9-33.7,115.9-67.4,41.3-23.8,82.6-47.3c8.6-4.8,13.4-4.4,18.5,1.5s2.4,11.4-1.1,17.4c-14.6,25-28.7,50.3-43.2,75.3s-29.5,50.4-44.1,75.7-29,50.8-43.6,76-29.2,50-43.7,75.1c-12.5,21.7-24.9,43.7-37.5,65.4-18.6,32.3-37.6,64.5-56,97-4.2,7.5-10.1,8.7-16.7,6.7s-7.4-8.2-7.4-14.4Q471.1,627.5,471,550.8Z"/><path class="cls-1" d="M400.3,80.7H667.2c6.2,0,11.9.8,15,6.8s.4,13.7-7.4,18.2q-63.7,36.6-127.6,73.2-66.9,38.7-133.7,77.8c-8.7,5-16.5,6.3-26.2.4-27.7-17-56.1-32.9-84.2-49.1l-66.7-38.4c-28.2-16.2-56.3-32.6-84.4-48.9-9.9-5.7-19.6-11.7-29.7-17-5.3-2.8-6.5-7.3-6.1-12s4-9.9,10.2-10.6a49.6,49.6,0,0,1,7.7-.3Z"/></svg>